<svg xmlns="http://www.w3.org/2000/svg" viewBox="0 0 256 256" fill="currentColor">
  <path d="M128 0C57.3 0 0 57.3 0 128s57.3 128 128 128 128-57.3 128-128S198.7 0 128 0zm0 230.4c-56.6 0-102.4-45.8-102.4-102.4S71.4 25.6 128 25.6s102.4 45.8 102.4 102.4-45.8 102.4-102.4 102.4z"/>
  <path d="M128 51.2c-42.2 0-76.8 34.6-76.8 76.8s34.6 76.8 76.8 76.8 76.8-34.6 76.8-76.8-34.6-76.8-76.8-76.8zm0 129.3c-28.9 0-52.5-23.6-52.5-52.5s23.6-52.5 52.5-52.5 52.5 23.6 52.5 52.5-23.6 52.5-52.5 52.5z"/>
  <path d="M128 102.4c-14.3 0-25.6 11.3-25.6 25.6s11.3 25.6 25.6 25.6 25.6-11.3 25.6-25.6-11.3-25.6-25.6-25.6z"/>
</svg>
